#N canvas 864 38 864 476 12;
#X obj 60 173 osc~;
#X obj 172 298 *~;
#X floatatom 280 261 5 0 1 0 - - - 0;
#X obj 314 231 / 127;
#X obj 168 382 dac~;
#X obj 326 200 ctlin 7;
#X floatatom 59 132 5 0 0 0 - - - 0;
#X obj 58 35 ctlin 21;
#X obj 58 103 + 50;
#X obj 56 72 * 50;
#X obj 121 225 *~;
#X floatatom 130 170 5 0 0 0 - - - 0;
#X obj 181 33 ctlin 22;
#X obj 182 70 / 127;
#X obj 182 107 * 5;
#X obj 131 266 clip~ -1 1;
#X obj 264 119 / 127;
#X obj 263 82 ctlin 23;
#X obj 264 156 * 5;
#X obj 196 174 * -1;
#X floatatom 191 211 5 0 0 0 - - - 0;
#X floatatom 242 210 5 0 0 0 - - - 0;
#X obj 563 301 *~;
#X floatatom 671 264 5 0 1 0 - - - 0;
#X obj 705 234 / 127;
#X obj 559 385 dac~;
#X obj 717 203 ctlin 7;
#X obj 512 228 *~;
#X floatatom 521 173 5 0 0 0 - - - 0;
#X obj 572 36 ctlin 22;
#X obj 573 73 / 127;
#X obj 573 110 * 5;
#X obj 522 269 clip~ -1 1;
#X obj 655 122 / 127;
#X obj 654 85 ctlin 23;
#X obj 655 159 * 5;
#X obj 587 177 * -1;
#X floatatom 582 214 5 0 0 0 - - - 0;
#X floatatom 633 213 5 0 0 0 - - - 0;
#X obj 435 116 adc~;
#X connect 0 0 10 0;
#X connect 2 0 1 1;
#X connect 3 0 2 0;
#X connect 5 0 3 0;
#X connect 6 0 0 0;
#X connect 7 0 9 0;
#X connect 8 0 6 0;
#X connect 9 0 8 0;
#X connect 10 0 15 0;
#X connect 11 0 10 1;
#X connect 12 0 13 0;
#X connect 13 0 14 0;
#X connect 14 0 11 0;
#X connect 15 0 1 0;
#X connect 16 0 18 0;
#X connect 17 0 16 0;
#X connect 18 0 21 0;
#X connect 18 0 19 0;
#X connect 19 0 20 0;
#X connect 20 0 15 1;
#X connect 21 0 15 2;
#X connect 23 0 22 1;
#X connect 24 0 23 0;
#X connect 26 0 24 0;
#X connect 27 0 32 0;
#X connect 28 0 27 1;
#X connect 29 0 30 0;
#X connect 30 0 31 0;
#X connect 31 0 28 0;
#X connect 32 0 22 0;
#X connect 33 0 35 0;
#X connect 34 0 33 0;
#X connect 35 0 38 0;
#X connect 35 0 36 0;
#X connect 36 0 37 0;
#X connect 37 0 32 1;
#X connect 38 0 32 2;
#X connect 39 0 27 0;
