#N canvas 1191 168 450 710 12;
#X obj 88 500 osc~ 440;
#X obj 89 563 *~ 0.1;
#X obj 92 612 dac~;
#X floatatom 158 530 5 0 0 0 - - - 0;
#X floatatom 89 456 5 0 0 0 - - - 0;
#X obj 88 265 vsl 19 162 30 2000 0 0 empty empty Frequency 0 -9 0 12 #e3c6ff #000000 #000000 0 1;
#X obj 159 263 vsl 19 162 0 1 0 0 empty empty Amplitude 0 -9 0 12 #c6feff #000000 #000000 0 1;
#X msg 42 222 56;
#X msg 156 217 0.1;
#X obj 101 134 bng 30 250 50 0 empty empty Trigger -1 -11 0 12 #ffc7c6 #000000 #000000;
#X obj 104 173 random 200;
#X obj 79 18 tgl 40 0 empty empty Rand 0 -10 0 12 #dfdfdf #000000 #000000 0 1;
#X obj 81 73 metro 300;
#X obj 233 423 tgl 40 0 empty empty Mute 0 -5 0 12 #ff8300 #000000 #000000 0 1;
#X obj 220 472 select 1;
#X connect 0 0 1 0;
#X connect 1 0 2 0;
#X connect 1 0 2 1;
#X connect 3 0 1 1;
#X connect 4 0 0 0;
#X connect 5 0 4 0;
#X connect 6 0 3 0;
#X connect 6 0 13 0;
#X connect 7 0 5 0;
#X connect 8 0 6 0;
#X connect 9 0 10 0;
#X connect 10 0 5 0;
#X connect 11 0 12 0;
#X connect 12 0 9 0;
#X connect 13 0 14 0;
#X connect 14 0 6 0;
#X connect 14 1 3 0;
