#N canvas 1386 38 864 477 12;
#X obj 88 142 osc~ 258;
#X obj 89 187 expr~ round($v1 / $f2);
#X floatatom 310 278 5 0 5 0 - - - 0;
#X obj 93 286 *~;
#X obj 93 391 dac~;
#X obj 98 345 *~;
#X floatatom 134 313 5 0 1 0 - - - 0;
#X obj 299 21 hsl 162 19 1 16 0 1 empty empty Bit\ Resolution -2 -10 0 12 #9c00ff #000000 #000000 4600 1;
#X floatatom 305 82 5 0 0 0 - - - 0;
#X obj 302 52 int;
#X obj 308 116 expr pow(2 \, $f1) - 1;
#X floatatom 310 147 5 0 0 0 - - - 0;
#X text 349 82 bit depth;
#X text 358 148 resolution;
#X obj 320 186 expr 1 / $f1;
#X connect 0 0 1 0;
#X connect 1 0 3 0;
#X connect 2 0 1 1;
#X connect 2 0 3 1;
#X connect 3 0 5 0;
#X connect 5 0 4 0;
#X connect 5 0 4 1;
#X connect 6 0 5 1;
#X connect 7 0 9 0;
#X connect 8 0 10 0;
#X connect 9 0 8 0;
#X connect 10 0 11 0;
#X connect 11 0 14 0;
#X connect 14 0 2 0;
