#N canvas 1433 38 864 477 12;
#N canvas 0 22 450 278 (subpatch) 0;
#X array \$0-points 10 float 3;
#A 0 0.3 -0.0571386 -0.299998 0.214288 0.628579 0.357146 -0.357144 0.0428621 0.257144 0.514291;
#X coords 0 1 10 -1 200 140 1;
#X restore 308 95 graph;
#X obj 54 194 tabread \$0-points;
#X floatatom 58 241 5 0 0 0 - - - 0;
#X obj 61 330 vline~;
#X obj 81 393 *~;
#X floatatom 97 364 5 0 1 0 - - - 0;
#X obj 80 437 dac~;
#X obj 50 44 metro;
#X floatatom 102 18 5 0 0 0 - - - 0;
#X obj 38 16 tgl 19 0 empty empty empty 0 -10 0 12 #fcfcfc #000000 #000000 0 1;
#X obj 53 106 f;
#X obj 104 106 + 1;
#X floatatom 53 152 5 0 0 0 - - - 0;
#X obj 51 75 bng 19 250 50 0 empty empty empty 0 -10 0 12 #fcfcfc #000000 #000000;
#X obj 110 140 mod 10;
#X obj 172 19 hsl 162 19 0.01 5 1 0 empty empty empty -2 -10 0 12 #fcfcfc #000000 #000000 0 1;
#X msg 60 302 \$1 \$2;
#X obj 63 273 pack;
#X connect 1 0 2 0;
#X connect 2 0 17 0;
#X connect 3 0 4 0;
#X connect 4 0 6 0;
#X connect 4 0 6 1;
#X connect 5 0 4 1;
#X connect 7 0 13 0;
#X connect 8 0 7 1;
#X connect 8 0 17 1;
#X connect 9 0 7 0;
#X connect 10 0 11 0;
#X connect 10 0 12 0;
#X connect 11 0 14 0;
#X connect 12 0 1 0;
#X connect 13 0 10 0;
#X connect 14 0 10 1;
#X connect 15 0 8 0;
#X connect 16 0 3 0;
#X connect 17 0 16 0;
