#N canvas 864 38 864 476 12;
#X obj 115 277 osc~;
#X obj 117 336 *~;
#X floatatom 163 308 5 0 1 0 - - - 0;
#X obj 121 393 dac~;
#X text 182 288 Carrier;
#X obj 101 232 +~;
#X floatatom 135 191 5 0 10000 0 - - - 0;
#X text 138 173 carrier_freq;
#X obj 62 93 osc~;
#X obj 66 124 *~;
#X floatatom 108 100 5 0 10000 0 - - - 0;
#X floatatom 61 61 5 0 10000 0 - - - 0;
#X text 111 81 mod_amp;
#X text 48 26 BASIC VERSION;
#X obj 601 37 hsl 162 19 0 2000 0 0 empty empty car_freq -2 -10 0 12 #e3c6ff #000000 #000000 0 1;
#X obj 463 292 osc~;
#X obj 465 351 *~;
#X obj 469 408 dac~;
#X obj 449 247 +~;
#X floatatom 483 206 5 0 10000 0 - - - 0;
#X text 486 188 carrier_freq;
#X obj 410 108 osc~;
#X obj 414 139 *~;
#X floatatom 456 115 5 0 10000 0 - - - 0;
#X floatatom 409 76 5 0 10000 0 - - - 0;
#X text 459 96 mod_amp;
#X floatatom 675 107 5 0 0 0 - - - 0;
#X obj 633 139 *;
#X obj 510 316 vline~;
#X floatatom 514 271 5 0 0 0 - - - 0;
#X msg 576 271 0 \, 1 10 \, 0 1000 \, 10;
#X connect 0 0 1 0;
#X connect 1 0 3 0;
#X connect 1 0 3 1;
#X connect 2 0 1 1;
#X connect 5 0 0 0;
#X connect 6 0 5 1;
#X connect 8 0 9 0;
#X connect 9 0 5 0;
#X connect 10 0 9 1;
#X connect 11 0 8 0;
#X connect 14 0 19 0;
#X connect 14 0 27 0;
#X connect 15 0 16 0;
#X connect 16 0 17 0;
#X connect 16 0 17 1;
#X connect 18 0 15 0;
#X connect 19 0 18 1;
#X connect 21 0 22 0;
#X connect 22 0 18 0;
#X connect 23 0 22 1;
#X connect 24 0 21 0;
#X connect 26 0 27 1;
#X connect 27 0 24 0;
#X connect 28 0 16 1;
#X connect 29 0 28 0;
#X connect 30 0 28 0;
