#N canvas 1291 38 864 476 12;
#X obj 219 174 +;
#X floatatom 219 234 5 0 0 0 - - - 0;
#X msg 165 114 34;
#X msg 287 118 100;
#X obj 208 435 osc~;
#X obj 206 540 dac~;
#X obj 210 486 *~;
#X floatatom 280 444 5 0 1 0 - - - 0;
#X floatatom 204 380 5 0 0 0 - - - 0;
#X obj 353 346 line~;
#X obj 378 282 line;
#X connect 0 0 1 0;
#X connect 2 0 0 0;
#X connect 3 0 0 1;
#X connect 4 0 6 0;
#X connect 6 0 5 0;
#X connect 6 0 5 1;
#X connect 7 0 6 1;
#X connect 8 0 4 0;
