#N canvas 983 65 745 1052 12;
#X obj 24 59 key;
#X floatatom 24 104 5 0 0 0 - - - 0;
#X obj 99 62 keyup;
#X floatatom 100 105 5 0 0 0 - - - 0;
#X obj 181 64 keyname;
#X symbolatom 224 107 10 0 0 0 - - - 0;
#X msg 51 202 440;
#X obj 52 238 osc~;
#X obj 52 283 *~;
#X obj 51 360 dac~;
#X floatatom 106 239 5 0 1 0 - - - 0;
#X msg 92 199 660;
#X obj 50 160 select 97 115;
#X obj 360 198 midiin;
#X floatatom 324 257 5 0 0 0 - - - 0;
#X obj 328 308 print;
#X obj 101 130 print;
#X obj 123 490 notein;
#X floatatom 120 524 5 0 0 0 - - - 0;
#X floatatom 142 554 5 0 0 0 - - - 0;
#X floatatom 167 576 5 0 0 0 - - - 0;
#X obj 88 566 mtof;
#X floatatom 91 609 5 0 0 0 - - - 0;
#X obj 113 661 osc~;
#X obj 113 706 *~;
#X obj 112 783 dac~;
#X floatatom 167 662 5 0 1 0 - - - 0;
#X obj 157 627 / 127;
#X obj 318 575 ctlin;
#X floatatom 318 620 5 0 0 0 - - - 0;
#X floatatom 336 648 5 0 0 0 - - - 0;
#X floatatom 355 680 5 0 0 0 - - - 0;
#X obj 204 881 *~;
#X obj 203 953 dac~;
#X floatatom 258 832 5 0 1 0 - - - 0;
#X obj 204 831 noise~;
#X obj 258 781 / 256;
#X connect 0 0 1 0;
#X connect 1 0 12 0;
#X connect 2 0 3 0;
#X connect 3 0 16 0;
#X connect 4 1 5 0;
#X connect 6 0 7 0;
#X connect 7 0 8 0;
#X connect 8 0 9 0;
#X connect 8 0 9 1;
#X connect 10 0 8 1;
#X connect 11 0 7 0;
#X connect 12 0 6 0;
#X connect 12 1 11 0;
#X connect 13 0 14 0;
#X connect 14 0 15 0;
#X connect 17 0 18 0;
#X connect 17 1 19 0;
#X connect 17 2 20 0;
#X connect 18 0 21 0;
#X connect 21 0 22 0;
#X connect 22 0 23 0;
#X connect 23 0 24 0;
#X connect 24 0 25 0;
#X connect 24 0 25 1;
#X connect 26 0 24 1;
#X connect 27 0 26 0;
#X connect 28 0 29 0;
#X connect 28 1 30 0;
#X connect 28 2 31 0;
#X connect 29 0 27 0;
#X connect 29 0 36 0;
#X connect 32 0 33 0;
#X connect 32 0 33 1;
#X connect 34 0 32 1;
#X connect 35 0 32 0;
#X connect 36 0 34 0;
