#N canvas 1552 38 864 478 12;
#X obj 248 127 phasor~;
#X floatatom 250 95 5 0 0 0 - - - 0;
#X obj 248 159 expr~ $v1 * 2 - 1;
#X obj 254 344 *~;
#X floatatom 294 317 5 0 1 0 - - - 0;
#X obj 262 396 dac~;
#X obj 245 281 lop~ 1000;
#X floatatom 310 245 5 0 0 0 - - - 0;
#X msg 737 53 50;
#X msg 532 52 20000;
#X obj 552 131 expr $f1 * pow(1 + $f2 \, $f3);
#X floatatom 781 166 5 0 0 0 - - - 0;
#X obj 505 16 bng 19 250 50 0 empty empty empty 0 -10 0 12 #fcfcfc #000000 #000000;
#X obj 532 79 expr pow($f1 - $f2 \, 1 / 128)-1;
#X obj 781 80 ctlin 21;
#X obj 313 195 ctlin 21;
#X obj 312 223 * 50;
#X obj 64 155 phasor~;
#X floatatom 66 123 5 0 0 0 - - - 0;
#X obj 64 187 expr~ $v1 * 2 - 1;
#X obj 70 372 *~;
#X floatatom 110 345 5 0 1 0 - - - 0;
#X obj 78 424 dac~;
#X floatatom 126 273 5 0 0 0 - - - 0;
#X obj 129 223 ctlin 21;
#X obj 128 251 * 50;
#X obj 61 309 hip~ 1000;
#X obj 135 495 phasor~;
#X floatatom 137 463 5 0 0 0 - - - 0;
#X obj 135 527 expr~ $v1 * 2 - 1;
#X obj 141 712 *~;
#X floatatom 181 685 5 0 1 0 - - - 0;
#X obj 149 764 dac~;
#X floatatom 197 613 5 0 0 0 - - - 0;
#X obj 200 563 ctlin 21;
#X obj 199 591 * 50;
#X obj 132 649 bp~ 1000 1;
#X floatatom 271 645 5 0 0 0 - - - 0;
#X obj 295 580 ctlin 22;
#X obj 302 610 / 40;
#X obj 467 453 phasor~;
#X floatatom 469 421 5 0 0 0 - - - 0;
#X obj 467 485 expr~ $v1 * 2 - 1;
#X obj 473 670 *~;
#X floatatom 513 643 5 0 1 0 - - - 0;
#X obj 481 722 dac~;
#X floatatom 529 571 5 0 0 0 - - - 0;
#X obj 532 521 ctlin 21;
#X obj 531 549 * 50;
#X floatatom 603 603 5 0 0 0 - - - 0;
#X obj 627 538 ctlin 22;
#X obj 464 607 vcf~ 1000 1;
#X text 412 624 bandpass;
#X text 540 626 lowpass;
#X obj 634 568 / 20;
#X obj 214 896 phasor~;
#X floatatom 216 864 5 0 0 0 - - - 0;
#X obj 214 928 expr~ $v1 * 2 - 1;
#X obj 220 1113 *~;
#X floatatom 260 1086 5 0 1 0 - - - 0;
#X obj 228 1165 dac~;
#X floatatom 276 1014 5 0 0 0 - - - 0;
#X obj 279 964 ctlin 21;
#X obj 278 992 * 50;
#X floatatom 350 1046 5 0 0 0 - - - 0;
#X obj 374 981 ctlin 22;
#X obj 381 1011 / 20;
#X text 159 1067;
#X text 287 1069;
#X obj 211 1050 bob~ 1;
#X connect 0 0 2 0;
#X connect 1 0 0 0;
#X connect 2 0 6 0;
#X connect 3 0 5 0;
#X connect 3 0 5 1;
#X connect 4 0 3 1;
#X connect 6 0 3 0;
#X connect 7 0 6 1;
#X connect 8 0 10 0;
#X connect 8 0 13 1;
#X connect 9 0 13 0;
#X connect 12 0 9 0;
#X connect 12 0 8 0;
#X connect 12 0 13 0;
#X connect 13 0 10 1;
#X connect 14 0 10 2;
#X connect 14 0 11 0;
#X connect 14 0 12 0;
#X connect 15 0 16 0;
#X connect 16 0 7 0;
#X connect 17 0 19 0;
#X connect 18 0 17 0;
#X connect 19 0 26 0;
#X connect 20 0 22 0;
#X connect 20 0 22 1;
#X connect 21 0 20 1;
#X connect 23 0 26 1;
#X connect 24 0 25 0;
#X connect 25 0 23 0;
#X connect 26 0 20 0;
#X connect 27 0 29 0;
#X connect 28 0 27 0;
#X connect 29 0 36 0;
#X connect 30 0 32 0;
#X connect 30 0 32 1;
#X connect 31 0 30 1;
#X connect 33 0 36 1;
#X connect 34 0 35 0;
#X connect 35 0 33 0;
#X connect 36 0 30 0;
#X connect 37 0 36 2;
#X connect 38 0 39 0;
#X connect 39 0 37 0;
#X connect 40 0 42 0;
#X connect 41 0 40 0;
#X connect 42 0 51 0;
#X connect 43 0 45 0;
#X connect 43 0 45 1;
#X connect 44 0 43 1;
#X connect 46 0 51 1;
#X connect 47 0 48 0;
#X connect 48 0 46 0;
#X connect 49 0 51 2;
#X connect 50 0 54 0;
#X connect 51 0 43 0;
#X connect 51 1 43 0;
#X connect 54 0 49 0;
#X connect 55 0 57 0;
#X connect 56 0 55 0;
#X connect 57 0 69 0;
#X connect 58 0 60 0;
#X connect 58 0 60 1;
#X connect 59 0 58 1;
#X connect 61 0 69 1;
#X connect 62 0 63 0;
#X connect 63 0 61 0;
#X connect 64 0 69 2;
#X connect 65 0 66 0;
#X connect 66 0 64 0;
#X connect 69 0 58 0;
