#N canvas 987 37 745 1080 12;
#X obj 166 360 osc~;
#X floatatom 163 319 5 0 0 0 - - - 0;
#X obj 168 407 *~;
#X floatatom 217 381 5 0 1 0 - - - 0;
#X obj 243 606 dac~;
#X obj 294 353 osc~;
#X floatatom 292 312 5 0 0 0 - - - 0;
#X obj 296 400 *~;
#X floatatom 345 374 5 0 1 0 - - - 0;
#X floatatom 378 528 5 0 1 0 - - - 0;
#X obj 253 549 *~, f 4;
#X floatatom 270 155 5 50 2000 2 Master\ Freq - - 10;
#X obj 178 255 * 1;
#X obj 288 256 * 2;
#X obj 414 353 osc~;
#X floatatom 412 312 5 0 0 0 - - - 0;
#X obj 416 400 *~;
#X floatatom 465 374 5 0 1 0 - - - 0;
#X obj 533 360 osc~;
#X floatatom 531 319 5 0 0 0 - - - 0;
#X obj 535 407 *~;
#X floatatom 584 381 5 0 1 0 - - - 0;
#X obj 637 359 osc~;
#X floatatom 635 318 5 0 0 0 - - - 0;
#X obj 639 406 *~;
#X floatatom 688 380 5 0 1 0 - - - 0;
#X obj 409 258 * 3;
#X obj 528 265 * 4;
#X obj 632 264 * 5;
#X connect 0 0 2 0;
#X connect 1 0 0 0;
#X connect 2 0 10 0;
#X connect 3 0 2 1;
#X connect 5 0 7 0;
#X connect 6 0 5 0;
#X connect 7 0 10 0;
#X connect 8 0 7 1;
#X connect 9 0 10 1;
#X connect 10 0 4 0;
#X connect 10 0 4 1;
#X connect 11 0 12 0;
#X connect 11 0 13 0;
#X connect 11 0 26 0;
#X connect 11 0 27 0;
#X connect 11 0 28 0;
#X connect 12 0 1 0;
#X connect 13 0 6 0;
#X connect 14 0 16 0;
#X connect 15 0 14 0;
#X connect 16 0 10 0;
#X connect 17 0 16 1;
#X connect 18 0 20 0;
#X connect 19 0 18 0;
#X connect 20 0 10 0;
#X connect 21 0 20 1;
#X connect 22 0 24 0;
#X connect 23 0 22 0;
#X connect 24 0 10 0;
#X connect 25 0 24 1;
#X connect 26 0 15 0;
#X connect 27 0 19 0;
#X connect 28 0 23 0;
