#N canvas 983 65 745 1052 12;
#X obj 62 172 osc~;
#X floatatom 59 131 5 0 0 0 - - - 0;
#X obj 55 74 hsl 50 19 50 1500 0 0 empty empty empty -2 -10 0 12 #c6feff #000000 #000000 0 1;
#X obj 67 240 *~;
#X obj 132 463 dac~;
#X obj 151 166 osc~;
#X floatatom 148 125 5 0 0 0 - - - 0;
#X obj 144 68 hsl 50 19 50 1500 0 0 empty empty empty -2 -10 0 12 #c6feff #000000 #000000 0 1;
#X obj 133 423 *~;
#X floatatom 180 400 5 0 1 0 - - - 0;
#X obj 257 173 osc~;
#X floatatom 254 132 5 0 0 0 - - - 0;
#X obj 250 75 hsl 50 19 50 1500 0 0 empty empty empty -2 -10 0 12 #c6feff #000000 #000000 0 1;
#X obj 166 281 *~;
#X obj 280 943 dac~;
#X obj 281 903 *~;
#X floatatom 328 880 5 0 1 0 - - - 0;
#X obj 278 845 *~;
#X obj 338 773 osc~;
#X floatatom 335 732 5 0 0 0 - - - 0;
#X obj 336 675 hsl 50 19 50 1500 0 0 empty empty empty -2 -10 0 12 #c6feff #000000 #000000 0 1;
#X obj 175 738 adc~;
#X obj 199 788 *~;
#X floatatom 223 742 5 0 0 0 - - - 0;
#X connect 0 0 3 0;
#X connect 1 0 0 0;
#X connect 2 0 1 0;
#X connect 3 0 13 0;
#X connect 5 0 3 1;
#X connect 6 0 5 0;
#X connect 7 0 6 0;
#X connect 8 0 4 0;
#X connect 8 0 4 1;
#X connect 9 0 8 1;
#X connect 10 0 13 1;
#X connect 11 0 10 0;
#X connect 12 0 11 0;
#X connect 13 0 8 0;
#X connect 15 0 14 0;
#X connect 15 0 14 1;
#X connect 16 0 15 1;
#X connect 17 0 15 0;
#X connect 18 0 17 1;
#X connect 19 0 18 0;
#X connect 20 0 19 0;
#X connect 21 0 22 0;
#X connect 22 0 17 0;
#X connect 23 0 22 1;
