#N canvas 1421 38 864 476 12;
#X obj 118 118 noise~;
#X obj 191 225 *~;
#X floatatom 241 213 5 0 1 0 - - - 0;
#X obj 186 291 dac~;
#X obj 279 162 / 127;
#X obj 287 126 ctlin 7;
#X obj 168 176 bp~ 1000 5;
#X obj 209 39 ctlin 21;
#X floatatom 202 136 5 0 0 0 - - - 0;
#X obj 207 80 * 50;
#X obj 206 106 + 50;
#X obj 445 70 noise~;
#X obj 468 186 *~;
#X obj 479 268 dac~;
#X obj 547 202 vline~;
#X obj 556 60 notein;
#X obj 558 92 / 127;
#X msg 542 126 \$1 0 \, 0 10;
#X floatatom 624 96 5 0 0 0 - - - 0;
#X connect 0 0 6 0;
#X connect 1 0 3 0;
#X connect 1 0 3 1;
#X connect 2 0 1 1;
#X connect 4 0 2 0;
#X connect 5 0 4 0;
#X connect 6 0 1 0;
#X connect 7 0 9 0;
#X connect 8 0 6 1;
#X connect 9 0 10 0;
#X connect 10 0 8 0;
#X connect 11 0 12 0;
#X connect 12 0 13 0;
#X connect 12 0 13 1;
#X connect 14 0 12 1;
#X connect 15 1 16 0;
#X connect 16 0 17 0;
#X connect 16 0 18 0;
#X connect 17 0 14 0;
